<?xml version="1.0" encoding="UTF-8" standalone="no"?>
<svg
   width="100%"
   height="100%"
   viewBox="0 0 11 11"
   id="jh_logo"
   shape-rendering="crispEdges"
   version="1.1"
   xmlns="http://www.w3.org/2000/svg"
   xmlns:svg="http://www.w3.org/2000/svg"
   xmlns:rdf="http://www.w3.org/1999/02/22-rdf-syntax-ns#"
   xmlns:cc="http://creativecommons.org/ns#"
   xmlns:dc="http://purl.org/dc/elements/1.1/">
  <metadata
     id="metadata14">
    <rdf:RDF>
      <cc:Work
         rdf:about="">
        <dc:format>image/svg+xml</dc:format>
        <dc:type
           rdf:resource="http://purl.org/dc/dcmitype/StillImage" />
      </cc:Work>
    </rdf:RDF>
  </metadata>
  <defs
     id="defs12" />
  <g
     id="face"
     style="fill:#ff0000">
    <path
       d="M 1 0 L 1 1 L 0 1 L 0 5 L 0 9 L 1 9 L 1 10 L 2 10 L 2 11 L 9 11 L 9 10 L 10 10 L 10 9 L 11 9 L 11 5 L 11 1 L 10 1 L 10 0 L 8 0 L 8 1 L 7 1 L 7 2 L 4 2 L 4 1 L 3 1 L 3 0 L 1 0 z M 2 4 L 9 4 L 9 5 L 10 5 L 10 8 L 9 8 L 9 9 L 8 9 L 8 10 L 3 10 L 3 9 L 2 9 L 2 8 L 1 8 L 1 5 L 2 5 L 2 4 z M 2 6 L 2 7 L 3 7 L 3 6 L 2 6 z M 8 6 L 8 7 L 9 7 L 9 6 L 8 6 z M 4 7 L 4 9 L 7 9 L 7 7 L 6 7 L 6 8 L 5 8 L 5 7 L 4 7 z "
       id="left_eye"
       style="fill:#ff0000" />
  </g>
  <g
     id="head" />
</svg>
